<mxfile host="Electron" agent="Mozilla/5.0 (Windows NT 10.0; Win64; x64) AppleWebKit/537.36 (KHTML, like Gecko) draw.io/24.7.8 Chrome/128.0.6613.36 Electron/32.0.1 Safari/537.36" version="24.7.8" pages="4">
  <diagram name="Core" id="FZl0_pAdUTDbATKchDwQ">
    <mxGraphModel dx="780" dy="496" grid="1" gridSize="10" guides="1" tooltips="1" connect="1" arrows="1" fold="1" page="1" pageScale="1" pageWidth="850" pageHeight="1100" math="0" shadow="0">
      <root>
        <mxCell id="0" />
        <mxCell id="1" parent="0" />
        <mxCell id="TuFL0cpdfQgzTw2LbcsJ-18" style="rounded=0;orthogonalLoop=1;jettySize=auto;html=1;endArrow=none;endFill=0;" edge="1" parent="1" source="TuFL0cpdfQgzTw2LbcsJ-1" target="TuFL0cpdfQgzTw2LbcsJ-5">
          <mxGeometry relative="1" as="geometry" />
        </mxCell>
        <mxCell id="TuFL0cpdfQgzTw2LbcsJ-19" style="rounded=0;orthogonalLoop=1;jettySize=auto;html=1;endArrow=none;endFill=0;" edge="1" parent="1" source="TuFL0cpdfQgzTw2LbcsJ-1" target="TuFL0cpdfQgzTw2LbcsJ-6">
          <mxGeometry relative="1" as="geometry" />
        </mxCell>
        <mxCell id="TuFL0cpdfQgzTw2LbcsJ-1" value="Language&lt;div&gt;Provide&lt;span style=&quot;background-color: initial;&quot;&gt;r&lt;/span&gt;&lt;/div&gt;" style="shape=umlActor;verticalLabelPosition=bottom;verticalAlign=top;html=1;" vertex="1" parent="1">
          <mxGeometry x="110" y="545" width="30" height="60" as="geometry" />
        </mxCell>
        <mxCell id="TuFL0cpdfQgzTw2LbcsJ-4" value="Ungrammar Language Core" style="shape=umlFrame;whiteSpace=wrap;html=1;pointerEvents=0;width=170;height=30;" vertex="1" parent="1">
          <mxGeometry x="290" y="230" width="370" height="690" as="geometry" />
        </mxCell>
        <mxCell id="TuFL0cpdfQgzTw2LbcsJ-5" value="View Annotations" style="ellipse;whiteSpace=wrap;html=1;" vertex="1" parent="1">
          <mxGeometry x="320" y="280" width="140" height="30" as="geometry" />
        </mxCell>
        <mxCell id="TuFL0cpdfQgzTw2LbcsJ-6" value="Provide Code Completion" style="ellipse;whiteSpace=wrap;html=1;" vertex="1" parent="1">
          <mxGeometry x="369" y="320" width="165" height="40" as="geometry" />
        </mxCell>
        <mxCell id="TuFL0cpdfQgzTw2LbcsJ-7" value="Provide Code Actions" style="ellipse;whiteSpace=wrap;html=1;" vertex="1" parent="1">
          <mxGeometry x="404" y="370" width="147" height="40" as="geometry" />
        </mxCell>
        <mxCell id="TuFL0cpdfQgzTw2LbcsJ-8" value="Report Diagnostics" style="ellipse;whiteSpace=wrap;html=1;" vertex="1" parent="1">
          <mxGeometry x="420" y="430" width="147" height="40" as="geometry" />
        </mxCell>
        <mxCell id="TuFL0cpdfQgzTw2LbcsJ-9" value="Go to Definition" style="ellipse;whiteSpace=wrap;html=1;" vertex="1" parent="1">
          <mxGeometry x="435.5" y="480" width="127" height="40" as="geometry" />
        </mxCell>
        <mxCell id="TuFL0cpdfQgzTw2LbcsJ-10" value="Find All References" style="ellipse;whiteSpace=wrap;html=1;" vertex="1" parent="1">
          <mxGeometry x="425" y="540" width="142" height="40" as="geometry" />
        </mxCell>
        <mxCell id="TuFL0cpdfQgzTw2LbcsJ-12" value="Expand/Shrink Code Folding" style="ellipse;whiteSpace=wrap;html=1;" vertex="1" parent="1">
          <mxGeometry x="425" y="590" width="177" height="40" as="geometry" />
        </mxCell>
        <mxCell id="TuFL0cpdfQgzTw2LbcsJ-13" value="Rename Code" style="ellipse;whiteSpace=wrap;html=1;" vertex="1" parent="1">
          <mxGeometry x="450" y="650" width="112.5" height="40" as="geometry" />
        </mxCell>
        <mxCell id="TuFL0cpdfQgzTw2LbcsJ-14" value="Highlight Semantic Syntax" style="ellipse;whiteSpace=wrap;html=1;" vertex="1" parent="1">
          <mxGeometry x="450" y="710" width="165" height="40" as="geometry" />
        </mxCell>
        <mxCell id="TuFL0cpdfQgzTw2LbcsJ-15" value="Highlight Related" style="ellipse;whiteSpace=wrap;html=1;" vertex="1" parent="1">
          <mxGeometry x="404" y="760" width="165" height="40" as="geometry" />
        </mxCell>
        <mxCell id="TuFL0cpdfQgzTw2LbcsJ-16" value="Provide Quick Navigation" style="ellipse;whiteSpace=wrap;html=1;" vertex="1" parent="1">
          <mxGeometry x="360" y="810" width="165" height="40" as="geometry" />
        </mxCell>
        <mxCell id="TuFL0cpdfQgzTw2LbcsJ-17" value="Update Configuration" style="ellipse;whiteSpace=wrap;html=1;" vertex="1" parent="1">
          <mxGeometry x="305" y="860" width="165" height="40" as="geometry" />
        </mxCell>
        <mxCell id="TuFL0cpdfQgzTw2LbcsJ-20" style="rounded=0;orthogonalLoop=1;jettySize=auto;html=1;endArrow=none;endFill=0;" edge="1" parent="1" source="TuFL0cpdfQgzTw2LbcsJ-1" target="TuFL0cpdfQgzTw2LbcsJ-7">
          <mxGeometry relative="1" as="geometry">
            <mxPoint x="160" y="394" as="sourcePoint" />
            <mxPoint x="369" y="376" as="targetPoint" />
          </mxGeometry>
        </mxCell>
        <mxCell id="TuFL0cpdfQgzTw2LbcsJ-21" style="rounded=0;orthogonalLoop=1;jettySize=auto;html=1;endArrow=none;endFill=0;" edge="1" parent="1" source="TuFL0cpdfQgzTw2LbcsJ-1" target="TuFL0cpdfQgzTw2LbcsJ-10">
          <mxGeometry relative="1" as="geometry">
            <mxPoint x="170" y="404" as="sourcePoint" />
            <mxPoint x="379" y="386" as="targetPoint" />
          </mxGeometry>
        </mxCell>
        <mxCell id="TuFL0cpdfQgzTw2LbcsJ-22" style="rounded=0;orthogonalLoop=1;jettySize=auto;html=1;endArrow=none;endFill=0;" edge="1" parent="1" source="TuFL0cpdfQgzTw2LbcsJ-1" target="TuFL0cpdfQgzTw2LbcsJ-9">
          <mxGeometry relative="1" as="geometry">
            <mxPoint x="180" y="414" as="sourcePoint" />
            <mxPoint x="389" y="396" as="targetPoint" />
          </mxGeometry>
        </mxCell>
        <mxCell id="TuFL0cpdfQgzTw2LbcsJ-23" style="rounded=0;orthogonalLoop=1;jettySize=auto;html=1;endArrow=none;endFill=0;" edge="1" parent="1" source="TuFL0cpdfQgzTw2LbcsJ-1" target="TuFL0cpdfQgzTw2LbcsJ-12">
          <mxGeometry relative="1" as="geometry">
            <mxPoint x="190" y="424" as="sourcePoint" />
            <mxPoint x="230" y="670" as="targetPoint" />
          </mxGeometry>
        </mxCell>
        <mxCell id="TuFL0cpdfQgzTw2LbcsJ-24" style="rounded=0;orthogonalLoop=1;jettySize=auto;html=1;endArrow=none;endFill=0;" edge="1" parent="1" source="TuFL0cpdfQgzTw2LbcsJ-1" target="TuFL0cpdfQgzTw2LbcsJ-8">
          <mxGeometry relative="1" as="geometry">
            <mxPoint x="200" y="434" as="sourcePoint" />
            <mxPoint x="409" y="416" as="targetPoint" />
          </mxGeometry>
        </mxCell>
        <mxCell id="TuFL0cpdfQgzTw2LbcsJ-25" style="rounded=0;orthogonalLoop=1;jettySize=auto;html=1;endArrow=none;endFill=0;" edge="1" parent="1" source="TuFL0cpdfQgzTw2LbcsJ-1" target="TuFL0cpdfQgzTw2LbcsJ-16">
          <mxGeometry relative="1" as="geometry">
            <mxPoint x="160" y="409" as="sourcePoint" />
            <mxPoint x="190" y="730" as="targetPoint" />
          </mxGeometry>
        </mxCell>
        <mxCell id="TuFL0cpdfQgzTw2LbcsJ-26" style="rounded=0;orthogonalLoop=1;jettySize=auto;html=1;endArrow=none;endFill=0;" edge="1" parent="1" source="TuFL0cpdfQgzTw2LbcsJ-1" target="TuFL0cpdfQgzTw2LbcsJ-15">
          <mxGeometry relative="1" as="geometry">
            <mxPoint x="170" y="419" as="sourcePoint" />
            <mxPoint x="450" y="671" as="targetPoint" />
          </mxGeometry>
        </mxCell>
        <mxCell id="TuFL0cpdfQgzTw2LbcsJ-27" style="rounded=0;orthogonalLoop=1;jettySize=auto;html=1;endArrow=none;endFill=0;" edge="1" parent="1" source="TuFL0cpdfQgzTw2LbcsJ-1" target="TuFL0cpdfQgzTw2LbcsJ-14">
          <mxGeometry relative="1" as="geometry">
            <mxPoint x="180" y="429" as="sourcePoint" />
            <mxPoint x="460" y="681" as="targetPoint" />
          </mxGeometry>
        </mxCell>
        <mxCell id="TuFL0cpdfQgzTw2LbcsJ-28" style="rounded=0;orthogonalLoop=1;jettySize=auto;html=1;endArrow=none;endFill=0;" edge="1" parent="1" source="TuFL0cpdfQgzTw2LbcsJ-1" target="TuFL0cpdfQgzTw2LbcsJ-13">
          <mxGeometry relative="1" as="geometry">
            <mxPoint x="190" y="439" as="sourcePoint" />
            <mxPoint x="470" y="691" as="targetPoint" />
          </mxGeometry>
        </mxCell>
        <mxCell id="TuFL0cpdfQgzTw2LbcsJ-29" style="rounded=0;orthogonalLoop=1;jettySize=auto;html=1;endArrow=none;endFill=0;" edge="1" parent="1" source="TuFL0cpdfQgzTw2LbcsJ-1" target="TuFL0cpdfQgzTw2LbcsJ-17">
          <mxGeometry relative="1" as="geometry">
            <mxPoint x="130" y="603" as="sourcePoint" />
            <mxPoint x="424" y="861" as="targetPoint" />
          </mxGeometry>
        </mxCell>
      </root>
    </mxGraphModel>
  </diagram>
  <diagram id="CTjLElD4b7AkCPbBhdOI" name="VSCode">
    <mxGraphModel dx="780" dy="496" grid="1" gridSize="10" guides="1" tooltips="1" connect="1" arrows="1" fold="1" page="1" pageScale="1" pageWidth="850" pageHeight="1100" math="0" shadow="0">
      <root>
        <mxCell id="0" />
        <mxCell id="1" parent="0" />
        <mxCell id="k49ucJH4XWuJq-KhmKnv-1" style="rounded=0;orthogonalLoop=1;jettySize=auto;html=1;endArrow=none;endFill=0;" edge="1" parent="1" source="k49ucJH4XWuJq-KhmKnv-3" target="k49ucJH4XWuJq-KhmKnv-5">
          <mxGeometry relative="1" as="geometry" />
        </mxCell>
        <mxCell id="k49ucJH4XWuJq-KhmKnv-2" style="rounded=0;orthogonalLoop=1;jettySize=auto;html=1;endArrow=none;endFill=0;" edge="1" parent="1" source="k49ucJH4XWuJq-KhmKnv-3" target="k49ucJH4XWuJq-KhmKnv-6">
          <mxGeometry relative="1" as="geometry" />
        </mxCell>
        <mxCell id="k49ucJH4XWuJq-KhmKnv-3" value="User" style="shape=umlActor;verticalLabelPosition=bottom;verticalAlign=top;html=1;" vertex="1" parent="1">
          <mxGeometry x="170" y="350" width="30" height="60" as="geometry" />
        </mxCell>
        <mxCell id="k49ucJH4XWuJq-KhmKnv-4" value="Ungrammar VS Code Extension" style="shape=umlFrame;whiteSpace=wrap;html=1;pointerEvents=0;width=190;height=30;" vertex="1" parent="1">
          <mxGeometry x="300" y="280" width="260" height="190" as="geometry" />
        </mxCell>
        <mxCell id="k49ucJH4XWuJq-KhmKnv-5" value="Use LSP Features" style="ellipse;whiteSpace=wrap;html=1;" vertex="1" parent="1">
          <mxGeometry x="360" y="340" width="140" height="30" as="geometry" />
        </mxCell>
        <mxCell id="k49ucJH4XWuJq-KhmKnv-6" value="View Documentation" style="ellipse;whiteSpace=wrap;html=1;" vertex="1" parent="1">
          <mxGeometry x="360" y="400" width="141" height="30" as="geometry" />
        </mxCell>
        <mxCell id="TCjpKjzmAIoYbtmZoW5m-2" value="Ungrammar&lt;div&gt;Language Core&lt;/div&gt;" style="shape=umlActor;verticalLabelPosition=bottom;verticalAlign=top;html=1;" vertex="1" parent="1">
          <mxGeometry x="650" y="350" width="30" height="60" as="geometry" />
        </mxCell>
        <mxCell id="TCjpKjzmAIoYbtmZoW5m-3" style="rounded=0;orthogonalLoop=1;jettySize=auto;html=1;endArrow=none;endFill=0;" edge="1" parent="1" source="TCjpKjzmAIoYbtmZoW5m-2" target="k49ucJH4XWuJq-KhmKnv-5">
          <mxGeometry relative="1" as="geometry">
            <mxPoint x="210" y="389" as="sourcePoint" />
            <mxPoint x="386" y="371" as="targetPoint" />
          </mxGeometry>
        </mxCell>
      </root>
    </mxGraphModel>
  </diagram>
  <diagram id="fwdbG1WfhKciM248whBC" name="Monaco">
    <mxGraphModel dx="780" dy="496" grid="1" gridSize="10" guides="1" tooltips="1" connect="1" arrows="1" fold="1" page="1" pageScale="1" pageWidth="850" pageHeight="1100" math="0" shadow="0">
      <root>
        <mxCell id="0" />
        <mxCell id="1" parent="0" />
        <mxCell id="in1ixkeLybm4Qeg4kOvk-1" style="rounded=0;orthogonalLoop=1;jettySize=auto;html=1;endArrow=none;endFill=0;" edge="1" parent="1" source="in1ixkeLybm4Qeg4kOvk-3" target="in1ixkeLybm4Qeg4kOvk-5">
          <mxGeometry relative="1" as="geometry" />
        </mxCell>
        <mxCell id="in1ixkeLybm4Qeg4kOvk-3" value="User" style="shape=umlActor;verticalLabelPosition=bottom;verticalAlign=top;html=1;" vertex="1" parent="1">
          <mxGeometry x="190" y="315" width="30" height="60" as="geometry" />
        </mxCell>
        <mxCell id="in1ixkeLybm4Qeg4kOvk-4" value="Ungrammar Monaco" style="shape=umlFrame;whiteSpace=wrap;html=1;pointerEvents=0;width=130;height=30;" vertex="1" parent="1">
          <mxGeometry x="300" y="270" width="260" height="130" as="geometry" />
        </mxCell>
        <mxCell id="in1ixkeLybm4Qeg4kOvk-5" value="Use LSP Features" style="ellipse;whiteSpace=wrap;html=1;" vertex="1" parent="1">
          <mxGeometry x="360" y="330" width="140" height="30" as="geometry" />
        </mxCell>
        <mxCell id="in1ixkeLybm4Qeg4kOvk-7" value="Ungrammar&lt;div&gt;Language Core&lt;/div&gt;" style="shape=umlActor;verticalLabelPosition=bottom;verticalAlign=top;html=1;" vertex="1" parent="1">
          <mxGeometry x="630" y="315" width="30" height="60" as="geometry" />
        </mxCell>
        <mxCell id="in1ixkeLybm4Qeg4kOvk-8" style="rounded=0;orthogonalLoop=1;jettySize=auto;html=1;endArrow=none;endFill=0;" edge="1" parent="1" source="in1ixkeLybm4Qeg4kOvk-7" target="in1ixkeLybm4Qeg4kOvk-5">
          <mxGeometry relative="1" as="geometry">
            <mxPoint x="210" y="379" as="sourcePoint" />
            <mxPoint x="386" y="361" as="targetPoint" />
          </mxGeometry>
        </mxCell>
      </root>
    </mxGraphModel>
  </diagram>
  <diagram id="bUIgqWR0xm_jvswqWjbG" name="Playground">
    <mxGraphModel dx="780" dy="496" grid="1" gridSize="10" guides="1" tooltips="1" connect="1" arrows="1" fold="1" page="1" pageScale="1" pageWidth="850" pageHeight="1100" math="0" shadow="0">
      <root>
        <mxCell id="0" />
        <mxCell id="1" parent="0" />
        <mxCell id="1TMbLjkSA6b5j6ae67i2-1" style="rounded=0;orthogonalLoop=1;jettySize=auto;html=1;endArrow=none;endFill=0;" edge="1" parent="1" source="1TMbLjkSA6b5j6ae67i2-3" target="1TMbLjkSA6b5j6ae67i2-5">
          <mxGeometry relative="1" as="geometry" />
        </mxCell>
        <mxCell id="1TMbLjkSA6b5j6ae67i2-2" style="rounded=0;orthogonalLoop=1;jettySize=auto;html=1;endArrow=none;endFill=0;" edge="1" parent="1" source="1TMbLjkSA6b5j6ae67i2-3" target="1TMbLjkSA6b5j6ae67i2-6">
          <mxGeometry relative="1" as="geometry" />
        </mxCell>
        <mxCell id="1TMbLjkSA6b5j6ae67i2-3" value="User" style="shape=umlActor;verticalLabelPosition=bottom;verticalAlign=top;html=1;" vertex="1" parent="1">
          <mxGeometry x="170" y="380" width="30" height="60" as="geometry" />
        </mxCell>
        <mxCell id="1TMbLjkSA6b5j6ae67i2-4" value="Ungrammar Online Demonstration Playground" style="shape=umlFrame;whiteSpace=wrap;html=1;pointerEvents=0;width=170;height=40;" vertex="1" parent="1">
          <mxGeometry x="300" y="270" width="260" height="260" as="geometry" />
        </mxCell>
        <mxCell id="1TMbLjkSA6b5j6ae67i2-5" value="Try Code Editor" style="ellipse;whiteSpace=wrap;html=1;" vertex="1" parent="1">
          <mxGeometry x="360" y="330" width="140" height="30" as="geometry" />
        </mxCell>
        <mxCell id="1TMbLjkSA6b5j6ae67i2-6" value="View Documentation" style="ellipse;whiteSpace=wrap;html=1;" vertex="1" parent="1">
          <mxGeometry x="355" y="480" width="141" height="30" as="geometry" />
        </mxCell>
        <mxCell id="1TMbLjkSA6b5j6ae67i2-7" value="Ungrammar&lt;div&gt;Monaco&lt;/div&gt;" style="shape=umlActor;verticalLabelPosition=bottom;verticalAlign=top;html=1;" vertex="1" parent="1">
          <mxGeometry x="650" y="380" width="30" height="60" as="geometry" />
        </mxCell>
        <mxCell id="1TMbLjkSA6b5j6ae67i2-8" style="rounded=0;orthogonalLoop=1;jettySize=auto;html=1;endArrow=none;endFill=0;" edge="1" parent="1" source="1TMbLjkSA6b5j6ae67i2-7" target="1TMbLjkSA6b5j6ae67i2-5">
          <mxGeometry relative="1" as="geometry">
            <mxPoint x="210" y="379" as="sourcePoint" />
            <mxPoint x="386" y="361" as="targetPoint" />
          </mxGeometry>
        </mxCell>
        <mxCell id="--FYDTfads8bhljO7pq_-1" value="View Security" style="ellipse;whiteSpace=wrap;html=1;" vertex="1" parent="1">
          <mxGeometry x="380" y="430" width="100" height="30" as="geometry" />
        </mxCell>
        <mxCell id="--FYDTfads8bhljO7pq_-2" value="Change Theme" style="ellipse;whiteSpace=wrap;html=1;" vertex="1" parent="1">
          <mxGeometry x="370" y="380" width="110" height="30" as="geometry" />
        </mxCell>
        <mxCell id="--FYDTfads8bhljO7pq_-3" style="rounded=0;orthogonalLoop=1;jettySize=auto;html=1;endArrow=none;endFill=0;" edge="1" parent="1" source="1TMbLjkSA6b5j6ae67i2-3" target="--FYDTfads8bhljO7pq_-2">
          <mxGeometry relative="1" as="geometry">
            <mxPoint x="210" y="416" as="sourcePoint" />
            <mxPoint x="396" y="367" as="targetPoint" />
          </mxGeometry>
        </mxCell>
        <mxCell id="--FYDTfads8bhljO7pq_-4" style="rounded=0;orthogonalLoop=1;jettySize=auto;html=1;endArrow=none;endFill=0;" edge="1" parent="1" source="1TMbLjkSA6b5j6ae67i2-3" target="--FYDTfads8bhljO7pq_-1">
          <mxGeometry relative="1" as="geometry">
            <mxPoint x="220" y="426" as="sourcePoint" />
            <mxPoint x="406" y="377" as="targetPoint" />
          </mxGeometry>
        </mxCell>
      </root>
    </mxGraphModel>
  </diagram>
</mxfile>
